<?xml version="1.0" encoding="UTF-8" standalone="no"?>
<!-- Created with Inkscape (http://www.inkscape.org/) -->

<svg
   xmlns:dc="http://purl.org/dc/elements/1.1/"
   xmlns:cc="http://creativecommons.org/ns#"
   xmlns:rdf="http://www.w3.org/1999/02/22-rdf-syntax-ns#"
   xmlns:svg="http://www.w3.org/2000/svg"
   xmlns="http://www.w3.org/2000/svg"
   xmlns:sodipodi="http://sodipodi.sourceforge.net/DTD/sodipodi-0.dtd"
   xmlns:inkscape="http://www.inkscape.org/namespaces/inkscape"
   width="2001.25"
   height="463.09375"
   id="svg2"
   version="1.1"
   inkscape:version="0.48.2 r9819"
   sodipodi:docname="slipstream_logo_red_on_transparent.svg"
   inkscape:export-filename="/Users/sixsq_rob/Dropbox/dev/design/20140121_Multimedia_image_repo_canvas/SlipStream/red_on_transparent/slipstream_logo_red_on_transparent_64px.png"
   inkscape:export-xdpi="2.8800001"
   inkscape:export-ydpi="2.8800001">
  <title
     id="title4041">SlipStream Logo</title>
  <defs
     id="defs4">
    <inkscape:path-effect
       effect="skeletal"
       id="path-effect3152"
       is_visible="true"
       pattern="M 0,5 C 0,2.24 2.24,0 5,0 7.76,0 10,2.24 10,5 10,7.76 7.76,10 5,10 2.24,10 0,7.76 0,5 z"
       copytype="single_stretched"
       prop_scale="1"
       scale_y_rel="false"
       spacing="0"
       normal_offset="0"
       tang_offset="0"
       prop_units="false"
       vertical_pattern="false"
       fuse_tolerance="0" />
    <clipPath
       clipPathUnits="userSpaceOnUse"
       id="clipPath4111">
      <path
         inkscape:connector-curvature="0"
         id="path4113"
         d="m 233.25001,10 0,207.875 c -0.5242,-1.59828 -1.09111,-3.16311 -1.71875,-4.6875 -3.53623,-9.24784 -8.83448,-17.12808 -15.90625,-23.65625 -6.80021,-6.52783 -14.68046,-12.12583 -23.65625,-16.75 -8.97618,-4.62382 -19.16992,-8.54831 -30.59375,-11.8125 l -20.40625,-6.125 c -10.60813,-3.5358 -19.19087,-7.3573 -25.71875,-11.4375 -6.52811,-4.07979 -9.78136,-10.04928 -9.78125,-17.9375 -1.1e-4,-7.88777 3.52164,-14.15701 10.59375,-18.78125 7.34388,-4.62374 15.25537,-6.93725 23.6875,-6.9375 9.51984,2.5e-4 18.74259,1.911 27.71875,5.71875 9.24781,3.53625 17.69631,8.43174 25.3125,14.6875 l 31.8125,-62 c -13.60022,-7.6157 -29.0922,-13.75069 -46.5,-18.375 -17.40817,-4.62367 -34.0054,-6.93718 -49.78125,-6.9375 C 113.0804,32.84407 98.930898,35.29182 85.875,40.1875 72.818925,45.08381 61.551186,52.15855 52.03125,61.40625 42.511206,70.38253 35.167963,81.27877 30,94.0625 c -5.168027,12.51225 -7.750024,26.49624 -7.75,42 -2.4e-5,14.4162 1.879474,26.52069 5.6875,36.3125 3.807966,9.52017 9.271711,17.43167 16.34375,23.6875 7.343946,5.98415 15.626938,10.87966 24.875,14.6875 9.24792,3.80814 21.35241,7.86688 36.31251,12.21875 0.54389,0.27213 1.34939,0.54064 2.4375,0.8125 6.25589,1.63214 11.71963,3.27437 16.34375,4.90625 4.89587,1.63212 9.65711,3.81137 14.28125,6.53125 4.62386,2.72011 8.27985,5.97337 11,9.78125 2.99185,3.53611 4.49985,7.8946 4.5,13.0625 -1.5e-4,10.06408 -3.82166,17.81008 -11.4375,23.25 -7.61613,5.16807 -16.73588,7.75006 -27.34375,7.75 -12.7841,6e-5 -25.022852,-2.85042 -36.71876,-8.5625 -11.696069,-5.71191 -23.098057,-13.45791 -34.25,-23.25 L 10,321.71875 c 15.775972,11.15202 32.910205,19.83776 51.40625,26.09375 18.767918,5.98401 37.67865,9 56.71876,9 16.31987,0 32.08035,-2.44775 47.3125,-7.34375 15.23182,-4.62399 28.5758,-11.83299 40,-21.625 11.42377,-9.79197 19.57253,-21.7622 24.46875,-35.90625 1.28175,-3.77423 2.39754,-7.6517 3.34375,-11.59375 l 0,68.3125 74.25,0 0,-90.09375 c -75.35005,-0.79492 -119.4375,-1.7531 -119.4375,-2.78125 0,-1.02814 44.08745,-1.95507 119.4375,-2.75 l 0,-243.03125 -74.25,0 z m 125.875,7.34375 c -11.42405,3.4e-4 -21.21504,4.09033 -29.375,12.25 -8.16002,8.16031 -12.25002,17.9513 -12.25,29.375 -2e-5,11.42428 4.08998,21.21527 12.25,29.375 8.15996,8.16026 17.95095,12.25025 29.375,12.25 11.42393,2.5e-4 21.21492,-4.08974 29.375,-12.25 8.1599,-8.15973 12.2499,-17.95072 12.25,-29.375 -10e-5,-11.4237 -4.0901,-21.21469 -12.25,-29.375 -8.16008,-8.15967 -17.95107,-12.24966 -29.375,-12.25 z m 378.24999,15.5 c -15.23211,3.2e-4 -29.38161,2.44807 -42.4375,7.34375 -13.05607,4.89631 -24.32381,11.97105 -33.84375,21.21875 -9.52004,8.97628 -16.86329,19.87252 -22.03125,32.65625 -5.16801,12.51225 -7.78126,26.49624 -7.78125,42 -10e-6,14.4162 1.91072,26.52069 5.71875,36.3125 3.80796,9.52017 9.27171,17.43167 16.34375,23.6875 7.34394,5.98415 15.62694,10.87966 24.875,14.6875 9.24792,3.80814 21.35241,7.86688 36.3125,12.21875 0.5439,0.27213 1.34939,0.54064 2.4375,0.8125 6.25589,1.63214 11.68839,3.27437 16.3125,4.90625 4.89586,1.63212 9.65712,3.81137 14.28125,6.53125 4.62387,2.72011 8.3111,5.97337 11.03125,9.78125 1.48956,1.76054 2.62402,3.70835 3.375,5.875 27.51463,-0.0372 55.67574,-0.0486 84.21875,-0.0625 0.0655,-1.91773 0.12497,-3.86244 0.125,-5.8125 -3.1e-4,-11.96787 -1.91106,-22.56437 -5.71875,-31.8125 -1.74026,-4.55099 -3.90355,-8.76391 -6.5,-12.65625 l 17.15625,0 0,50.28125 c 14.61441,-0.006 29.12838,-0.0312 43.96875,-0.0312 10.22055,0 20.1659,-0.003 30.28125,0 l 0,-50.25 27.4375,0 0,50.28125 c 25.35227,0.0145 50.3469,0.0295 74.8751,0.0625 1.3655,-13.77708 4.9725,-24.84463 10.8124,-33.1875 7.616,-11.15185 20.9287,-16.74985 39.9688,-16.75 4.3265,1e-4 8.2285,0.2721 11.7188,0.75 -4.4583,12.8379 -6.7188,26.98742 -6.7188,42.5 0,2.29048 0.03,4.55691 0.125,6.78125 109.8241,0.21483 208.6745,0.62514 290.125,1.15625 -0.3406,-2.55251 -0.5,-5.19808 -0.5,-7.9375 -1e-4,-13.32788 4.1929,-24.46137 12.625,-33.4375 8.7039,-9.24784 20.4055,-13.87484 35.0938,-13.875 14.6876,1.6e-4 26.2552,4.62716 34.6874,13.875 8.704,8.97613 13.0624,20.10962 13.0626,33.4375 -10e-5,3.00869 -0.2298,5.90429 -0.6563,8.6875 28.2003,0.27591 52.6023,0.56085 72.4687,0.875 l 0,-114.40625 -74.2812,0 0,20.40625 c -7.6162,-8.9758 -17.273,-15.78204 -28.9688,-20.40625 -11.4239,-4.62378 -23.3943,-6.93728 -35.9062,-6.9375 -15.2321,2.2e-4 -29.2161,2.98497 -42,8.96875 -12.7841,5.7122 -23.9488,13.7267 -33.4688,24.0625 -8.6319,9.3721 -15.4772,20.10092 -20.5312,32.15625 -5.0073,-12.90539 -12.1723,-24.16907 -21.5312,-33.78125 -20.1284,-20.94379 -48.293,-31.40603 -84.4688,-31.40625 -16.8641,2.2e-4 -32.5216,2.58222 -46.9375,7.75 -14.1441,4.89621 -26.3829,12.23945 -36.7187,22.03125 -2.0189,1.91254 -3.9389,3.90059 -5.7813,5.96875 l 0,-31.6875 -14.2813,0 c -14.9601,2.2e-4 -28.304,3.15046 -40,9.40625 -11.4239,5.9842 -20.6779,15.23819 -27.75,27.75 l -0.8124,0 0,-34.28125 -59.65635,0 -42.03125,0 0,-62.84375 -74.25,0 0,62.84375 -24.0625,0 0,52.625 c -0.80961,-0.8363 -1.63787,-1.64163 -2.5,-2.4375 -6.80021,-6.52783 -14.68045,-12.12583 -23.65625,-16.75 -8.97618,-4.62382 -19.16993,-8.54831 -30.59375,-11.8125 l -20.40625,-6.125 c -10.60813,-3.5358 -19.19087,-7.3573 -25.71875,-11.4375 -6.52811,-4.07979 -9.78136,-10.04928 -9.78125,-17.9375 -1.1e-4,-7.88777 3.52164,-14.15701 10.59375,-18.78125 7.34388,-4.62374 15.25537,-6.93725 23.6875,-6.9375 9.51985,2.5e-4 18.74258,1.911 27.71875,5.71875 9.24782,3.53624 17.69631,8.43174 25.3125,14.6875 l 31.8125,-62 c -13.60024,-7.6157 -29.09221,-13.75069 -46.5,-18.375 -17.40816,-4.62368 -34.00539,-6.93718 -49.78125,-6.9375 z m -188.3125,99.5625 c -12.78414,2.3e-4 -24.88864,2.58222 -36.3125,7.75 C 501.32589,145.32446 492.3404,152.9362 485.81251,163 l -0.8125,0 0,-23.65625 -74.25,0 0,112.8125 c 22.74237,-0.15162 46.85554,-0.30804 72.28125,-0.4375 -0.30572,-2.42765 -0.46877,-4.93583 -0.46875,-7.53125 -10e-5,-13.32788 4.1929,-24.46137 12.625,-33.4375 8.70388,-9.24784 20.40561,-13.87484 35.09374,-13.875 14.68785,1.6e-4 26.25532,4.62716 34.6875,13.875 8.70381,8.97613 13.06231,20.10962 13.0625,33.4375 -3e-5,2.4506 -0.15453,4.82396 -0.4375,7.125 24.85259,-0.0887 50.54436,-0.15094 76.96875,-0.21875 0.10875,-2.15809 0.15621,-4.31613 0.15625,-6.5 -2.7e-4,-14.95988 -2.58227,-29.24361 -7.75,-42.84375 -5.16826,-13.59983 -12.51149,-25.57006 -22.03125,-35.90625 -9.24823,-10.6078 -20.41296,-18.75655 -33.46875,-24.46875 -13.05619,-5.98378 -27.17443,-8.96852 -42.40625,-8.96875 z m 1142.7188,0 c -27.4722,2.3e-4 -49.502,10.99946 -66.0937,33.03125 l -0.8126,0 0,-26.09375 -74.25,0 0,114.5625 c 33.0881,0.5784 51.75,1.21308 51.75,1.875 0,0.66193 -18.662,1.29662 -51.75,1.875 l 0,91 74.25,0 0,-99.96875 c 0,-8.15989 0.2684,-15.23462 0.8126,-21.21875 0.5437,-6.25587 1.7521,-12.25661 3.6562,-17.96875 1.9039,-5.71185 5.1884,-10.30759 9.8125,-13.84375 4.8959,-3.80784 11.1338,-5.71859 18.75,-5.71875 7.6158,1.6e-4 13.7508,1.91091 18.375,5.71875 4.8958,3.53616 8.2833,8.1319 10.1875,13.84375 2.1758,5.71214 3.4153,11.71288 3.6875,17.96875 0.5438,5.98413 0.8123,13.05886 0.8125,21.21875 l 0,99.96875 74.25,0 0,-99.96875 c -3e-4,-8.15989 0.2682,-15.23462 0.8125,-21.21875 0.8157,-6.25587 2.3237,-12.09111 4.5,-17.53125 2.1757,-5.43984 5.6976,-9.79835 10.5937,-13.0625 4.8959,-3.53584 11.4335,-5.31234 19.5938,-5.3125 7.0717,1.6e-4 12.6384,1.77666 16.7188,5.3125 4.3515,3.26415 7.4706,7.62266 9.375,13.0625 1.9036,5.44014 3.1432,11.14113 3.6874,17.125 0.5438,5.98413 0.8123,13.19311 0.8126,21.625 l 0,99.96875 74.25,0 0,-10.46875 c 1.2483,1.62306 2.6059,3.21847 4.0937,4.75 9.248,9.24801 20.547,13.875 33.875,13.875 13.3279,0 24.5958,-4.62699 33.8437,-13.875 9.2481,-9.51998 13.875,-20.81897 13.875,-33.875 0,-13.32794 -4.627,-24.62693 -13.875,-33.875 -9.248,-9.24791 -20.5158,-13.84366 -33.8437,-13.84375 -13.328,9e-5 -24.627,4.59584 -33.875,13.84375 -1.4887,1.4887 -2.8448,3.06184 -4.0937,4.65625 l 0,-64.625 c -5e-4,-25.83983 -5.5672,-46.09307 -16.7188,-60.78125 -11.1524,-14.68779 -29.3919,-22.03102 -54.6875,-22.03125 -14.6883,2.3e-4 -28.4038,3.52197 -41.1875,10.59375 -12.7843,6.80021 -22.7095,16.59119 -29.7812,29.375 -7.3444,-13.59981 -17.1353,-23.6593 -29.375,-30.1875 -12.2403,-6.52778 -26.2555,-9.78102 -42.0313,-9.78125 z m -1369.78129,6.9375 0,113.53125 c 22.53317,-0.22077 47.03801,-0.4333 74.25,-0.625 l 0,-112.90625 -74.25,0 z M 1203.125,180.5625 c 10.3361,1.8e-4 19.4556,3.11917 27.3438,9.375 7.8878,5.98416 12.7833,13.8644 14.6875,23.65625 l -86.0937,0 c 2.1757,-10.60784 7.2056,-18.75659 15.0937,-24.46875 8.1599,-5.71183 17.8168,-8.56232 28.9687,-8.5625 z m 337.5,77.25 c -20.1537,0.31869 -44.9968,0.62698 -73.7187,0.90625 -2.0534,7.33983 -5.7634,13.78233 -11.1563,19.34375 -8.432,8.70407 -19.9997,13.06256 -34.6874,13.0625 -14.6883,6e-5 -26.3899,-4.35843 -35.0938,-13.0625 -5.0523,-5.37814 -8.5753,-11.58357 -10.5938,-18.625 -24.4555,0.1604 -50.2106,0.33384 -77.6874,0.46875 1.0637,8.17269 2.9378,16.13519 5.6562,23.875 l -63.5,0 c -7.6162,12.78406 -19.4207,19.1563 -35.4688,19.15625 -29.6427,5e-5 -45.1307,-14.16354 -46.4374,-42.5 -23.8652,0.0677 -48.4031,0.10701 -73.4688,0.15625 3.0266,27.30984 13.8967,49.17697 32.5938,65.59375 22.5758,19.58402 51.8146,29.40625 87.7187,29.40625 25.5678,0 48.2688,-6.135 68.125,-18.375 16.6087,-10.23832 28.2561,-24.39634 34.9687,-42.4375 4.8089,10.10104 10.9957,19.35325 18.5313,27.75 9.5199,10.33602 20.8189,18.48477 33.875,24.46875 13.0559,5.712 27.0711,8.59375 42.0313,8.59375 13.0558,0 25.2946,-2.61325 36.7187,-7.78125 11.4238,-5.16799 20.2438,-12.64548 26.5,-22.4375 l 0.8125,0 0,23.28125 74.2812,0 0,-90.84375 z M 322,258.71875 l 0,89.9375 74.25,0 0,-89.34375 c -27.21195,-0.19169 -51.71686,-0.37297 -74.25,-0.59375 z m 88.75,0.6875 0,193.6875 74.25,0 0,-124.4375 c 7.61589,8.70402 17.13838,15.37601 28.5625,20 11.69586,4.62401 23.80035,6.9375 36.3125,6.9375 15.23182,0 29.24706,-2.88175 42.03125,-8.59375 12.23979,-5.35499 22.79418,-12.73717 31.6875,-22.15625 14.50768,9.66782 30.14075,17.30867 46.875,22.96875 18.76792,5.98401 37.67864,9 56.71875,9 16.31987,0 32.08034,-2.44775 47.3125,-7.34375 15.23182,-4.62399 28.57581,-11.83299 40,-21.625 11.42378,-9.79197 19.57245,-21.7622 24.46875,-35.90625 3.33709,-9.82641 5.53128,-20.21842 6.59375,-31.1875 -27.97672,-0.0138 -55.57373,-0.0263 -82.5625,-0.0625 -0.61838,8.79526 -4.40423,15.66818 -11.34375,20.625 -7.61613,5.16807 -16.73588,7.75006 -27.34375,7.75 -12.7841,6e-5 -25.02284,-2.85042 -36.71875,-8.5625 -10.3586,-5.05873 -20.47731,-11.74021 -30.40625,-20 -28.02132,-0.071 -55.23879,-0.15557 -81.5,-0.25 -2.12756,6.70763 -5.70523,12.64224 -10.71875,17.8125 -8.43218,8.70407 -19.99966,13.06256 -34.6875,13.0625 -14.68813,6e-5 -26.38987,-4.35843 -35.09375,-13.0625 -4.95386,-5.27335 -8.43187,-11.34621 -10.46875,-18.21875 -26.05415,-0.13183 -50.71606,-0.28247 -73.96875,-0.4375 z m 616.4688,1.28125 c -24.3396,0.0326 -49.13121,0.0481 -74.2813,0.0625 l 0,87.90625 74.2501,0 0,-84.46875 c -10e-5,-1.18399 0,-2.34807 0.031,-3.5 z M 851.25,260.75 l 0,87.90625 74.25,0 0,-87.875 c -10.11535,0.003 -20.0607,0 -30.28125,0 -14.84037,0 -29.35435,-0.0249 -43.96875,-0.0312 z"
         style="font-size:408px;font-style:normal;font-variant:normal;font-weight:bold;font-stretch:normal;text-align:center;line-height:125%;letter-spacing:0px;word-spacing:0px;writing-mode:lr-tb;text-anchor:middle;fill:#ffffff;fill-opacity:1;stroke:none;display:inline;font-family:Futura;-inkscape-font-specification:Futura Bold" />
    </clipPath>
    <filter
       id="filter3927"
       inkscape:label="Inner Shadow"
       inkscape:menu="Shadows and Glows"
       inkscape:menu-tooltip="Adds a colorizable drop shadow inside"
       color-interpolation-filters="sRGB">
      <feGaussianBlur
         id="feGaussianBlur3929"
         stdDeviation="4"
         result="result8" />
      <feOffset
         id="feOffset3931"
         dx="4"
         dy="4"
         result="result11" />
      <feComposite
         id="feComposite3933"
         in2="result11"
         result="result6"
         in="SourceGraphic"
         operator="in" />
      <feFlood
         id="feFlood3935"
         result="result10"
         in="result6"
         flood-opacity="1"
         flood-color="rgb(0,0,0)" />
      <feBlend
         id="feBlend3937"
         in2="result10"
         mode="normal"
         in="result6"
         result="result12" />
      <feComposite
         id="feComposite3939"
         in2="SourceGraphic"
         result="result2"
         operator="in" />
    </filter>
  </defs>
  <sodipodi:namedview
     id="base"
     pagecolor="#ffffff"
     bordercolor="#666666"
     borderopacity="1.0"
     inkscape:pageopacity="0.0"
     inkscape:pageshadow="2"
     inkscape:zoom="0.9899495"
     inkscape:cx="352.20265"
     inkscape:cy="211.14077"
     inkscape:document-units="px"
     inkscape:current-layer="g3922"
     showgrid="false"
     showborder="true"
     borderlayer="true"
     inkscape:showpageshadow="false"
     fit-margin-top="10"
     fit-margin-right="10"
     fit-margin-bottom="10"
     fit-margin-left="10"
     inkscape:window-width="1981"
     inkscape:window-height="1369"
     inkscape:window-x="36"
     inkscape:window-y="32"
     inkscape:window-maximized="0" />
  <metadata
     id="metadata7">
    <rdf:RDF>
      <cc:Work
         rdf:about="">
        <dc:format>image/svg+xml</dc:format>
        <dc:type
           rdf:resource="http://purl.org/dc/dcmitype/StillImage" />
        <dc:title>SlipStream Logo</dc:title>
        <dc:date>21jan2014</dc:date>
        <dc:creator>
          <cc:Agent>
            <dc:title>SixSq Sarl</dc:title>
          </cc:Agent>
        </dc:creator>
        <dc:publisher>
          <cc:Agent>
            <dc:title>SixSq Sarl</dc:title>
          </cc:Agent>
        </dc:publisher>
        <dc:subject>
          <rdf:Bag>
            <rdf:li>slipstream.</rdf:li>
          </rdf:Bag>
        </dc:subject>
        <dc:description>Official vector version of the SlipStream logo.</dc:description>
      </cc:Work>
    </rdf:RDF>
  </metadata>
  <g
     style="display:inline"
     inkscape:groupmode="layer"
     id="g3922"
     inkscape:label="All as paths, SixSq red"
     transform="translate(0.624975,-268.45312)"
     sodipodi:insensitive="true">
    <path
       style="font-size:408px;font-style:normal;font-variant:normal;font-weight:bold;font-stretch:normal;text-align:center;line-height:125%;letter-spacing:0px;word-spacing:0px;writing-mode:lr-tb;text-anchor:middle;fill:#aa0000;fill-opacity:1;stroke:none;font-family:Futura;-inkscape-font-specification:Futura Bold"
       d="m 232.62503,278.45312 0,207.875 c -0.52419,-1.59828 -1.09111,-3.16311 -1.71875,-4.6875 -3.53623,-9.24784 -8.83447,-17.12808 -15.90625,-23.65625 -6.80021,-6.52783 -14.68045,-12.12583 -23.65625,-16.75 -8.97618,-4.62382 -19.16992,-8.54831 -30.59375,-11.8125 l -20.40625,-6.125 c -10.60813,-3.5358 -19.19087,-7.3573 -25.71875,-11.4375 -6.52811,-4.07979 -9.78136,-10.04928 -9.78125,-17.9375 -1.1e-4,-7.88777 3.52164,-14.15701 10.59375,-18.78125 7.34388,-4.62374 15.25537,-6.93725 23.6875,-6.9375 9.51985,2.5e-4 18.74259,1.911 27.71875,5.71875 9.24782,3.53625 17.69631,8.43174 25.3125,14.6875 l 31.8125,-62 c -13.60021,-7.6157 -29.0922,-13.75069 -46.5,-18.375 -17.40816,-4.62367 -34.00539,-6.93718 -49.78125,-6.9375 -15.23211,3.2e-4 -29.381607,2.44807 -42.437505,7.34375 -13.056075,4.89631 -24.323814,11.97105 -33.84375,21.21875 -9.520044,8.97628 -16.863287,19.87252 -22.03125,32.65625 -5.168027,12.51225 -7.750024,26.49624 -7.75,42 -2.4e-5,14.4162 1.879474,26.52069 5.6875,36.3125 3.807966,9.52017 9.271711,17.43167 16.34375,23.6875 7.343946,5.98415 15.626938,10.87966 24.875,14.6875 9.24792,3.80814 21.35241,7.86688 36.312505,12.21875 0.54389,0.27213 1.34939,0.54064 2.4375,0.8125 6.25589,1.63214 11.71963,3.27437 16.34375,4.90625 4.89587,1.63212 9.65712,3.81137 14.28125,6.53125 4.62386,2.72011 8.27985,5.97337 11,9.78125 2.99185,3.53611 4.49985,7.8946 4.5,13.0625 -1.5e-4,10.06408 -3.82165,17.81008 -11.4375,23.25 -7.61613,5.16807 -16.73588,7.75006 -27.34375,7.75 -12.7841,6e-5 -25.022847,-2.85042 -36.718755,-8.5625 -11.696069,-5.71191 -23.098057,-13.45791 -34.25,-23.25 l -34.28125,64.46875 c 15.775972,11.15202 32.910205,19.83776 51.40625,26.09375 18.767918,5.98401 37.67865,9 56.718755,9 16.31987,0 32.08035,-2.44775 47.3125,-7.34375 15.23182,-4.62399 28.57581,-11.83299 40,-21.625 11.42378,-9.79197 19.57253,-21.7622 24.46875,-35.90625 1.28176,-3.77423 2.39755,-7.6517 3.34375,-11.59375 l 0,68.3125 74.25,0 0,-90.09375 c -75.35005,-0.79492 -119.4375,-1.7531 -119.4375,-2.78125 0,-1.02814 44.08745,-1.95507 119.4375,-2.75 l 0,-243.03125 -74.25,0 z m 125.875,7.34375 c -11.42405,3.4e-4 -21.21504,4.09033 -29.375,12.25 -8.16002,8.16031 -12.25002,17.9513 -12.25,29.375 -2e-5,11.42428 4.08998,21.21527 12.25,29.375 8.15996,8.16026 17.95095,12.25025 29.375,12.25 11.42393,2.5e-4 21.21492,-4.08974 29.375,-12.25 8.1599,-8.15973 12.2499,-17.95072 12.25,-29.375 -10e-5,-11.4237 -4.0901,-21.21469 -12.25,-29.375 -8.16008,-8.15967 -17.95107,-12.24966 -29.375,-12.25 z m 378.25,15.5 c -15.23211,3.2e-4 -29.38161,2.44807 -42.4375,7.34375 -13.05607,4.89631 -24.32381,11.97105 -33.84375,21.21875 -9.52004,8.97628 -16.86329,19.87252 -22.03125,32.65625 -5.16802,12.51225 -7.78127,26.49624 -7.78125,42 -2e-5,14.4162 1.91072,26.52069 5.71875,36.3125 3.80796,9.52017 9.27171,17.43167 16.34375,23.6875 7.34394,5.98415 15.62694,10.87966 24.875,14.6875 9.24792,3.80814 21.35241,7.86688 36.3125,12.21875 0.54389,0.27213 1.34939,0.54064 2.4375,0.8125 6.25589,1.63214 11.68838,3.27437 16.3125,4.90625 4.89586,1.63212 9.65712,3.81137 14.28125,6.53125 4.62386,2.72011 8.3111,5.97337 11.03125,9.78125 1.48956,1.76054 2.62402,3.70835 3.375,5.875 27.51463,-0.0372 55.67574,-0.0486 84.21875,-0.0625 0.0655,-1.91773 0.12497,-3.86244 0.125,-5.8125 -3.1e-4,-11.96787 -1.91106,-22.56437 -5.71875,-31.8125 -1.74026,-4.55099 -3.90355,-8.76391 -6.5,-12.65625 l 17.15625,0 0,50.28125 c 14.6144,-0.006 29.12838,-0.0312 43.96875,-0.0312 10.22055,0 20.1659,-0.003 30.28125,0 l 0,-50.25 27.4375,0 0,50.28125 c 25.35227,0.0145 50.34687,0.0295 74.87507,0.0625 1.3655,-13.77708 4.9725,-24.84463 10.8124,-33.1875 7.616,-11.15185 20.9287,-16.74985 39.9688,-16.75 4.3265,10e-5 8.2285,0.2721 11.7188,0.75 -4.4583,12.8379 -6.7188,26.98742 -6.7188,42.5 0,2.29048 0.03,4.55691 0.125,6.78125 109.8241,0.21483 208.6745,0.62514 290.125,1.15625 -0.3406,-2.55251 -0.5,-5.19808 -0.5,-7.9375 -1e-4,-13.32788 4.1929,-24.46137 12.625,-33.4375 8.7039,-9.24784 20.4055,-13.87484 35.0938,-13.875 14.6876,1.6e-4 26.2552,4.62716 34.6874,13.875 8.704,8.97613 13.0624,20.10962 13.0626,33.4375 -10e-5,3.00869 -0.2298,5.90429 -0.6563,8.6875 28.2003,0.27591 52.6023,0.56085 72.4687,0.875 l 0,-114.40625 -74.2812,0 0,20.40625 c -7.6162,-8.9758 -17.273,-15.78204 -28.9688,-20.40625 -11.4239,-4.62378 -23.3943,-6.93728 -35.9062,-6.9375 -15.2321,2.2e-4 -29.2161,2.98497 -42,8.96875 -12.7841,5.7122 -23.9488,13.7267 -33.4688,24.0625 -8.6319,9.3721 -15.4772,20.10092 -20.5312,32.15625 -5.0073,-12.90539 -12.1723,-24.16907 -21.5312,-33.78125 -20.1284,-20.94379 -48.293,-31.40603 -84.4688,-31.40625 -16.8641,2.2e-4 -32.5216,2.58222 -46.9375,7.75 -14.1441,4.89621 -26.3829,12.23945 -36.7187,22.03125 -2.0189,1.91254 -3.9389,3.90059 -5.7813,5.96875 l 0,-31.6875 -14.2813,0 c -14.9601,2.2e-4 -28.304,3.15046 -40,9.40625 -11.4239,5.9842 -20.6779,15.23819 -27.75,27.75 l -0.8124,0 0,-34.28125 -59.65632,0 -42.03125,0 0,-62.84375 -74.25,0 0,62.84375 -24.0625,0 0,52.625 c -0.80961,-0.8363 -1.63787,-1.64163 -2.5,-2.4375 -6.80021,-6.52783 -14.68045,-12.12583 -23.65625,-16.75 -8.97618,-4.62382 -19.16993,-8.54831 -30.59375,-11.8125 l -20.40625,-6.125 c -10.60813,-3.5358 -19.19087,-7.3573 -25.71875,-11.4375 -6.52811,-4.07979 -9.78136,-10.04928 -9.78125,-17.9375 -1.1e-4,-7.88777 3.52164,-14.15701 10.59375,-18.78125 7.34388,-4.62374 15.25537,-6.93725 23.6875,-6.9375 9.51985,2.5e-4 18.74258,1.911 27.71875,5.71875 9.24782,3.53624 17.69631,8.43174 25.3125,14.6875 l 31.8125,-62 c -13.60024,-7.6157 -29.09221,-13.75069 -46.5,-18.375 -17.40816,-4.62368 -34.00539,-6.93718 -49.78125,-6.9375 z m -188.3125,99.5625 c -12.78415,2.3e-4 -24.88864,2.58222 -36.3125,7.75 -11.42412,5.16821 -20.40961,12.77995 -26.9375,22.84375 l -0.8125,0 0,-23.65625 -74.25,0 0,112.8125 c 22.74237,-0.15162 46.85554,-0.30804 72.28125,-0.4375 -0.30572,-2.42765 -0.46877,-4.93583 -0.46875,-7.53125 -10e-5,-13.32788 4.1929,-24.46137 12.625,-33.4375 8.70388,-9.24784 20.40562,-13.87484 35.09375,-13.875 14.68784,1.6e-4 26.25532,4.62716 34.6875,13.875 8.70381,8.97613 13.06231,20.10962 13.0625,33.4375 -3e-5,2.4506 -0.15453,4.82396 -0.4375,7.125 24.85259,-0.0887 50.54436,-0.15094 76.96875,-0.21875 0.10875,-2.15809 0.15621,-4.31613 0.15625,-6.5 -2.7e-4,-14.95988 -2.58227,-29.24361 -7.75,-42.84375 -5.16826,-13.59983 -12.5115,-25.57006 -22.03125,-35.90625 -9.24823,-10.6078 -20.41297,-18.75655 -33.46875,-24.46875 -13.05619,-5.98378 -27.17443,-8.96852 -42.40625,-8.96875 z m 1142.71877,0 c -27.4722,2.3e-4 -49.502,10.99946 -66.0937,33.03125 l -0.8126,0 0,-26.09375 -74.25,0 0,114.5625 c 33.0881,0.5784 51.75,1.21308 51.75,1.875 0,0.66193 -18.662,1.29662 -51.75,1.875 l 0,91 74.25,0 0,-99.96875 c 0,-8.15989 0.2684,-15.23462 0.8126,-21.21875 0.5437,-6.25587 1.7521,-12.25661 3.6562,-17.96875 1.9039,-5.71185 5.1884,-10.30759 9.8125,-13.84375 4.8959,-3.80784 11.1338,-5.71859 18.75,-5.71875 7.6158,1.6e-4 13.7508,1.91091 18.375,5.71875 4.8958,3.53616 8.2833,8.1319 10.1875,13.84375 2.1758,5.71214 3.4153,11.71288 3.6875,17.96875 0.5438,5.98413 0.8123,13.05886 0.8125,21.21875 l 0,99.96875 74.25,0 0,-99.96875 c -3e-4,-8.15989 0.2682,-15.23462 0.8125,-21.21875 0.8157,-6.25587 2.3237,-12.09111 4.5,-17.53125 2.1757,-5.43984 5.6976,-9.79835 10.5937,-13.0625 4.8959,-3.53584 11.4335,-5.31234 19.5938,-5.3125 7.0717,1.6e-4 12.6384,1.77666 16.7188,5.3125 4.3515,3.26415 7.4706,7.62266 9.375,13.0625 1.9036,5.44014 3.1432,11.14113 3.6874,17.125 0.5438,5.98413 0.8123,13.19311 0.8126,21.625 l 0,99.96875 74.25,0 0,-10.46875 c 1.2483,1.62306 2.6059,3.21847 4.0937,4.75 9.248,9.24801 20.547,13.875 33.875,13.875 13.3279,0 24.5958,-4.62699 33.8437,-13.875 9.2481,-9.51998 13.875,-20.81897 13.875,-33.875 0,-13.32794 -4.627,-24.62693 -13.875,-33.875 -9.248,-9.24791 -20.5158,-13.84366 -33.8437,-13.84375 -13.328,9e-5 -24.627,4.59584 -33.875,13.84375 -1.4887,1.4887 -2.8448,3.06184 -4.0937,4.65625 l 0,-64.625 c -5e-4,-25.83983 -5.5672,-46.09307 -16.7188,-60.78125 -11.1524,-14.68779 -29.3919,-22.03102 -54.6875,-22.03125 -14.6883,2.3e-4 -28.4038,3.52197 -41.1875,10.59375 -12.7843,6.80021 -22.7095,16.59119 -29.7812,29.375 -7.3444,-13.59981 -17.1353,-23.6593 -29.375,-30.1875 -12.2403,-6.52778 -26.2555,-9.78102 -42.0313,-9.78125 z m -1369.78127,6.9375 0,113.53125 c 22.53317,-0.22077 47.03801,-0.4333 74.25,-0.625 l 0,-112.90625 -74.25,0 z M 1202.5,449.01562 c 10.3361,1.8e-4 19.4556,3.11917 27.3438,9.375 7.8878,5.98416 12.7833,13.8644 14.6875,23.65625 l -86.0937,0 c 2.1757,-10.60784 7.2056,-18.75659 15.0937,-24.46875 8.1599,-5.71183 17.8168,-8.56232 28.9687,-8.5625 z m 337.5,77.25 c -20.1537,0.31869 -44.9968,0.62698 -73.7187,0.90625 -2.0534,7.33983 -5.7634,13.78233 -11.1563,19.34375 -8.432,8.70407 -19.9997,13.06256 -34.6874,13.0625 -14.6883,6e-5 -26.3899,-4.35843 -35.0938,-13.0625 -5.0523,-5.37814 -8.5753,-11.58357 -10.5938,-18.625 -24.4555,0.1604 -50.2106,0.33384 -77.6874,0.46875 1.0637,8.17269 2.9378,16.13519 5.6562,23.875 l -63.5,0 c -7.6162,12.78406 -19.4207,19.1563 -35.4688,19.15625 -29.6427,5e-5 -45.1307,-14.16354 -46.4374,-42.5 -23.8652,0.0677 -48.4031,0.10701 -73.4688,0.15625 3.0266,27.30984 13.8967,49.17697 32.5938,65.59375 22.5758,19.58402 51.8146,29.40625 87.7187,29.40625 25.5678,0 48.2688,-6.135 68.125,-18.375 16.6087,-10.23832 28.2561,-24.39634 34.9687,-42.4375 4.8089,10.10104 10.9957,19.35325 18.5313,27.75 9.5199,10.33602 20.8189,18.48477 33.875,24.46875 13.0559,5.712 27.0711,8.59375 42.0313,8.59375 13.0558,0 25.2946,-2.61325 36.7187,-7.78125 11.4238,-5.16799 20.2438,-12.64548 26.5,-22.4375 l 0.8125,0 0,23.28125 74.2812,0 0,-90.84375 z m -1218.62497,0.90625 0,89.9375 74.25,0 0,-89.34375 c -27.21195,-0.19169 -51.71686,-0.37297 -74.25,-0.59375 z m 88.75,0.6875 0,193.6875 74.25,0 0,-124.4375 c 7.61589,8.70402 17.13838,15.37601 28.5625,20 11.69586,4.62401 23.80035,6.9375 36.3125,6.9375 15.23182,0 29.24706,-2.88175 42.03125,-8.59375 12.23979,-5.35499 22.79418,-12.73717 31.6875,-22.15625 14.50768,9.66782 30.14075,17.30867 46.875,22.96875 18.76792,5.98401 37.67864,9 56.71875,9 16.31987,0 32.08034,-2.44775 47.3125,-7.34375 15.23182,-4.62399 28.57581,-11.83299 40,-21.625 11.42378,-9.79197 19.57245,-21.7622 24.46875,-35.90625 3.33709,-9.82641 5.53128,-20.21842 6.59375,-31.1875 -27.97672,-0.0138 -55.57373,-0.0263 -82.5625,-0.0625 -0.61838,8.79526 -4.40423,15.66818 -11.34375,20.625 -7.61613,5.16807 -16.73588,7.75006 -27.34375,7.75 -12.7841,6e-5 -25.02284,-2.85042 -36.71875,-8.5625 -10.3586,-5.05873 -20.47731,-11.74021 -30.40625,-20 -28.02132,-0.071 -55.23879,-0.15557 -81.5,-0.25 -2.12756,6.70763 -5.70523,12.64224 -10.71875,17.8125 -8.43218,8.70407 -19.99966,13.06256 -34.6875,13.0625 -14.68813,6e-5 -26.38987,-4.35843 -35.09375,-13.0625 -4.95386,-5.27335 -8.43187,-11.34621 -10.46875,-18.21875 -26.05415,-0.13183 -50.71606,-0.28247 -73.96875,-0.4375 z m 616.46877,1.28125 c -24.3396,0.0326 -49.13118,0.0481 -74.28127,0.0625 l 0,87.90625 74.25007,0 0,-84.46875 c -10e-5,-1.18399 0,-2.34807 0.031,-3.5 z m -175.96877,0.0625 0,87.90625 74.25,0 0,-87.875 c -10.11535,0.003 -20.0607,0 -30.28125,0 -14.84037,0 -29.35435,-0.0249 -43.96875,-0.0312 z"
       id="path3926"
       inkscape:connector-curvature="0" />
  </g>
</svg>
